Coordinates
version=1
nRows=4
nColumns=63
inDegrees=yes

Units are S.I. units (second, meters, Newtons, ...)
If the header above contains a line with 'inDegrees', this indicates whether rotational values are in degrees (yes) or radians (no).

endheader
time	pelvis_tilt	pelvis_list	pelvis_rotation	pelvis_tx	pelvis_ty	pelvis_tz	hip_flexion_r	hip_adduction_r	hip_rotation_r	knee_angle_r	knee_angle_r_beta	ankle_angle_r	subtalar_angle_r	mtp_angle_r	hip_flexion_l	hip_adduction_l	hip_rotation_l	knee_angle_l	knee_angle_l_beta	ankle_angle_l	subtalar_angle_l	mtp_angle_l	L5_S1_Flex_Ext	L5_S1_Lat_Bending	L5_S1_axial_rotation	L4_L5_Flex_Ext	L4_L5_Lat_Bending	L4_L5_axial_rotation	L3_L4_Flex_Ext	L3_L4_Lat_Bending	L3_L4_axial_rotation	L2_L3_Flex_Ext	L2_L3_Lat_Bending	L2_L3_axial_rotation	L1_L2_Flex_Ext	L1_L2_Lat_Bending	L1_L2_axial_rotation	L1_T12_Flex_Ext	L1_T12_Lat_Bending	L1_T12_axial_rotation	Abs_r3	Abs_r2	Abs_r1	Abs_t1	Abs_t2	neck_flexion	neck_bending	neck_rotation	arm_flex_r	arm_add_r	arm_rot_r	elbow_flex_r	pro_sup_r	wrist_flex_r	wrist_dev_r	arm_flex_l	arm_add_l	arm_rot_l	elbow_flex_l	pro_sup_l	wrist_flex_l	wrist_dev_l
      5.03389831	      3.22192395	     -9.41466075	    118.16760885	      0.20707085	      0.55734302	      0.97871455	     15.19176105	      6.81594765	     -5.34145676	     20.98588644	      0.36627281	     49.96192639	     -9.74510660	      0.00000000	     11.98235494	     -0.14418089	     18.61396372	     19.30385455	      0.33691582	     44.61715037	     -5.27463867	      0.00000000	      0.41140287	     -1.37372573	      2.66912647	      0.76401627	     -1.82705521	      2.83594687	      0.67589378	     -3.34007673	      2.83594687	      0.47019234	     -3.34007673	      2.33548566	      0.38202871	     -2.80130150	      2.16866526	      0.23507560	     -2.12790115	      2.00184485	      2.93860957	    -15.53986015	     14.84488068	      0.00000000	      0.00000000	     25.34717444	     11.07317994	      5.74066327	     68.11117501	      8.17630500	    200.82159485	      0.53133585	      0.69355121	     22.07812693	    -24.30142297	     17.28106745	    -17.09104610	    125.63484147	      4.64434894	      2.56452558	     -7.62914749	     -9.38519093
      5.05084746	      3.05992646	     -9.73181765	    116.94157380	      0.20575564	      0.55645260	      0.97886372	     15.32595809	      6.47482920	     -5.42304592	     21.33090875	      0.37229459	     50.01815268	     -9.13391143	      0.00000000	     12.20429052	      0.17254367	     17.83777344	     19.65976864	      0.34312769	     44.68793518	     -6.00101196	      0.00000000	      0.43882678	     -1.33312180	      2.74596917	      0.81494520	     -1.77305199	      2.91759224	      0.72094851	     -3.24135234	      2.91759224	      0.50153512	     -3.24135234	      2.40272302	      0.40749454	     -2.71850197	      2.23109995	      0.25074562	     -2.06500567	      2.05947688	      3.13449578	    -15.08054042	     15.27225672	      0.00000000	      0.00000000	     26.09117234	     10.49948553	      8.54232283	     63.06771214	     10.34223649	    205.50885787	      0.48317446	      0.76258465	     19.33616002	    -24.13719203	     14.50301136	    -18.35815181	    121.04205435	      4.82449256	      2.39614559	     -7.51160441	    -12.33841390
      5.06779661	      3.08860305	     -9.73447647	    115.44083158	      0.20387589	      0.55562055	      0.97801974	     15.18262606	      6.43592288	     -5.63793189	     21.65409282	      0.37793522	     50.08687703	     -8.15975588	      0.00000000	     12.22289652	      0.23430717	     17.27498013	     20.28043579	      0.35396038	     44.74656391	     -7.38951230	      0.00000000	      0.46230254	     -1.23648016	      2.78694188	      0.85854205	     -1.64451861	      2.96112575	      0.75951684	     -3.00637786	      2.96112575	      0.52836557	     -3.00637786	      2.43857414	      0.42929414	     -2.52143034	      2.26439028	      0.26415967	     -1.91530777	      2.09020641	      3.30218081	    -13.98731085	     15.50013465	      0.00000000	      0.00000000	     26.84850865	      9.47589276	     11.33595489	     58.21493413	     12.25464875	    210.10050634	      0.48343431	      0.86277062	     16.74526747	    -23.56586928	     11.65463338	    -19.17845024	    113.48911060	      5.51871045	      2.44215878	     -7.55568295	    -15.08109306
      5.08474576	      3.28229519	     -9.45041237	    113.53388277	      0.20178365	      0.55514751	      0.97607463	     14.75253255	      6.73677928	     -5.48402988	     21.91512988	      0.38249117	     50.10670023	     -7.08746828	      0.00000000	     11.95702967	      0.00294097	     16.52521571	     21.01037588	      0.36670024	     44.77633005	     -9.06370968	      0.00000000	      0.47630670	     -1.08738933	      2.87040183	      0.88454916	     -1.44622781	      3.04980195	      0.78252427	     -2.64387842	      3.04980195	      0.54437092	     -2.64387842	      2.51160161	      0.44229840	     -2.21740433	      2.33220149	      0.27216165	     -1.68436608	      2.15280138	      3.40221110	    -12.30076561	     15.96431388	      0.00000000	      0.00000000	     27.37006806	      8.50355917	     14.75779326	     53.65079386	     13.68743967	    213.18646525	      0.53541065	      0.93858228	     15.01244833	    -21.62205052	      9.17100711	    -19.02871038	    111.22552467	      5.30349435	      2.28949379	     -9.13353744	    -16.77935720
